# xmcd CD database file
#
# Track frame offsets:
#	150
#	12781
#	23951
#	32400
#	44771
#	63431
#	76658
#	87464
#	102983
#	118338
#	130979
#	148375
#
# Disc length: 2325 seconds
#
# Revision: 0
# Processed by: cddbd v1.5.1PL2 Copyright (c) Steve Scherf et al.
# Submitted via: CDex 1.51
#
DISCID=a509130c
DTITLE=The Mustangs  - Let It Roll
DYEAR=2003
DGENRE=Blues
TTITLE0=Soft Top Down
TTITLE1=Just Let It Roll
TTITLE2=I Hates To See You Go
TTITLE3=All You Do Is Make Me Cry
TTITLE4=No Time For The Blues
TTITLE5=Al Capone
TTITLE6=Double Headed Romeo
TTITLE7=Prohibition Blues
TTITLE8=I See Red
TTITLE9=Old Mose Blues
TTITLE10=Done My Baby Wrong
TTITLE11=In Need Of You
EXTD=YEAR: 2003
EXTT0=
EXTT1=
EXTT2=
EXTT3=
EXTT4=
EXTT5=
EXTT6=
EXTT7=
EXTT8=
EXTT9=
EXTT10=
EXTT11=
PLAYORDER=
